<svg width="64" height="65" viewBox="0 0 64 65" fill="none" xmlns="http://www.w3.org/2000/svg">
<g id="icon/action/assignment">
<path id="Vector" d="M50.6667 8.02767H39.52C38.4 4.93434 35.4667 2.69434 32 2.69434C28.5333 2.69434 25.6 4.93434 24.48 8.02767H13.3333C10.4 8.02767 8 10.4277 8 13.361V50.6943C8 53.6277 10.4 56.0277 13.3333 56.0277H50.6667C53.6 56.0277 56 53.6277 56 50.6943V13.361C56 10.4277 53.6 8.02767 50.6667 8.02767ZM32 8.02767C33.4667 8.02767 34.6667 9.22767 34.6667 10.6943C34.6667 12.161 33.4667 13.361 32 13.361C30.5333 13.361 29.3333 12.161 29.3333 10.6943C29.3333 9.22767 30.5333 8.02767 32 8.02767ZM37.3333 45.361H18.6667V40.0277H37.3333V45.361ZM45.3333 34.6943H18.6667V29.361H45.3333V34.6943ZM45.3333 24.0277H18.6667V18.6943H45.3333V24.0277Z" fill="#8E8E93"/>
</g>
</svg>
